Coordinates
version=1
nRows=8
nColumns=40
inDegrees=yes

Units are S.I. units (second, meters, Newtons, ...)
Angles are in degrees.

endheader
time	pelvis_tilt	pelvis_list	pelvis_rotation	pelvis_tx	pelvis_ty	pelvis_tz	hip_flexion_r	hip_adduction_r	hip_rotation_r	knee_angle_r	knee_angle_r_beta	ankle_angle_r	subtalar_angle_r	mtp_angle_r	hip_flexion_l	hip_adduction_l	hip_rotation_l	knee_angle_l	knee_angle_l_beta	ankle_angle_l	subtalar_angle_l	mtp_angle_l	lumbar_extension	lumbar_bending	lumbar_rotation	arm_flex_r	arm_add_r	arm_rot_r	elbow_flex_r	pro_sup_r	wrist_flex_r	wrist_dev_r	arm_flex_l	arm_add_l	arm_rot_l	elbow_flex_l	pro_sup_l	wrist_flex_l	wrist_dev_l
     46.89000000	     -5.64495378	     -5.09406762	     -1.52454611	      1.05160364	      0.93111624	      0.39704612	     33.78847276	     -4.02291213	     -5.54598210	     67.22854665	     67.22854665	      0.01584019	    -17.38917726	      3.25896931	     18.42878945	     -6.15078695	     -7.02306924	     22.54999694	     22.54999694	     12.04472786	    -10.95585947	     -0.30123069	    -12.24203942	      4.92146308	      2.17536093	     12.66646105	    -12.72216786	     -2.26666834	     60.12444078	     45.49413595	      0.00000000	      0.00000000	      3.88253520	    -13.11905614	     -4.81125658	     55.02969196	     46.04284669	      0.00000000	      0.00000000
     46.90171429	     -5.53311119	     -5.19181173	     -1.86790770	      1.05043796	      0.93184668	      0.39673569	     34.73730320	     -3.87335789	     -5.58950919	     65.33462903	     65.33462903	      0.18691132	    -16.96891333	      3.11085663	     17.47171912	     -6.19740275	     -7.10777554	     22.10166989	     22.10166989	     12.34643941	    -11.26303361	     -0.22462158	    -12.47664626	      5.20790813	      2.92393558	     10.75776615	    -13.51079858	     -2.32441736	     57.08657779	     45.59265607	      0.00000000	      0.00000000	      5.61061105	    -13.15887380	     -4.99846930	     56.72939600	     46.10670242	      0.00000000	      0.00000000
     46.91342857	     -5.48798298	     -5.25482531	     -2.18667103	      1.04924384	      0.93232741	      0.39657946	     35.57025851	     -3.70875162	     -5.65307374	     63.14835907	     63.14835907	     -0.03544405	    -16.71722758	      1.86117482	     16.65130669	     -6.24172741	     -7.27290045	     21.75047486	     21.75047486	     12.59166090	    -11.38099339	     -0.44987945	    -12.58106498	      5.32834130	      2.43877232	     11.26804725	    -12.85201225	     -3.37678484	     49.11421058	     45.91017132	      0.00000000	      0.00000000	      6.11492047	    -14.10302265	     -4.62371611	     59.67261160	     46.18587188	      0.00000000	      0.00000000
     46.92514286	     -5.38109715	     -5.38207175	     -2.54656864	      1.04812032	      0.93286352	      0.39647258	     36.20287117	     -3.43674037	     -5.74651445	     60.76134445	     60.76134445	      0.04535130	    -16.22013693	      1.81274042	     15.73799859	     -6.36676826	     -7.54159248	     21.37386680	     21.37386680	     12.92620513	    -11.40691020	     -0.48759526	    -12.88318348	      5.59269682	      3.13798151	      9.57596811	    -13.55280413	     -3.45325184	     46.22827768	     46.00553605	      0.00000000	      0.00000000	      7.72506242	    -14.10794851	     -5.04632629	     61.65679276	     46.27532644	      0.00000000	      0.00000000
     46.93685714	     -5.36234742	     -5.45495996	     -2.84951737	      1.04700515	      0.93319535	      0.39639738	     36.74111314	     -3.24461200	     -5.94453007	     58.05890910	     58.05890910	     -0.16151148	    -15.72367376	      1.01386018	     14.94310047	     -6.42851529	     -7.78885913	     20.99859886	     20.99859886	     13.18810414	    -11.35404695	     -0.74973112	    -12.93810494	      5.76086684	      2.46111110	     10.64212232	    -12.91038511	     -4.61760562	     38.09831032	     46.34776168	      0.00000000	      0.00000000	      8.00690027	    -15.01638221	     -5.31244861	     64.73237294	     46.42261860	      0.00000000	      0.00000000
     46.94857143	     -5.32592610	     -5.52106153	     -3.17309287	      1.04598209	      0.93343158	      0.39643869	     37.13007522	     -3.03011418	     -6.18258617	     55.14730184	     55.14730184	     -0.20708601	    -15.02487200	      0.65886231	     14.12245184	     -6.48361275	     -8.04917819	     20.61959506	     20.61959506	     13.44388069	    -11.36087628	     -0.93099769	    -13.09453391	      5.93710678	      2.46145457	     10.26121027	    -12.94255946	     -5.63951080	     33.36826941	     46.55725215	      0.00000000	      0.00000000	      8.92087511	    -15.32548510	     -6.09415123	     67.19851197	     46.60007154	      0.00000000	      0.00000000
     46.96028571	     -5.30671727	     -5.61055564	     -3.47122048	      1.04503383	      0.93363828	      0.39654247	     37.35094687	     -2.80329831	     -6.57096043	     51.94475871	     51.94475871	     -0.04233968	    -14.02352486	      0.82351384	     13.28501451	     -6.54864426	     -8.27879316	     20.16525576	     20.16525576	     13.73963953	    -11.30320672	     -0.97145174	    -13.25548136	      6.18417885	      2.88875490	      8.68362344	    -13.48642935	     -5.80728004	     31.63153267	     46.62206347	      0.00000000	      0.00000000	     10.33248637	    -15.40196119	     -6.40776162	     68.84349899	     46.66832361	      0.00000000	      0.00000000
     46.97200000	     -5.34285550	     -5.59499568	     -3.79482694	      1.04415555	      0.93355876	      0.39685126	     37.47029129	     -2.61504575	     -6.93141873	     48.43615813	     48.43615813	     -0.25222241	    -13.08869953	     -0.23591985	     12.50144133	     -6.52727622	     -8.61399939	     19.70354099	     19.70354099	     13.87071985	    -11.24679796	     -1.56154916	    -13.29024665	      6.23125866	      2.46116966	      9.36646034	    -13.13431906	     -7.76043095	     25.62118499	     46.99126217	      0.00000000	      0.00000000	     10.65296901	    -16.40496289	     -6.48736803	     71.95953221	     46.82098482	      0.00000000	      0.00000000
